<svg xmlns="http://www.w3.org/2000/svg" viewBox="0 0 399.08 241.3"><defs><style>.cls-1{fill:#dbba49;}.cls-2{fill:#673d3c;}</style></defs><title>logoglowink</title><g id="Layer_2" data-name="Layer 2"><g id="Layer_1-2" data-name="Layer 1"><path class="cls-1" d="M263.84,111.68c-17,2-33.07,7-48.65,13.89a175.92,175.92,0,0,0-22.8,12.24c-1,.6-2,2.26-3.15,1.2-.88-.83,0-2.41.46-3.59a100.51,100.51,0,0,1,8.17-15.71C217,90,244,70.06,276.35,56.9c18.24-7.42,37.38-12.14,56-18.26S369,25.17,384.65,13a83,83,0,0,0,12-11c.5-.58,1.11-1.59,1.85-1.24,1.13.53.37,1.64.14,2.46C389.28,36,371,59.7,335.45,66.62c-19,3.69-37.86,7.86-56.18,14.24a213.2,213.2,0,0,0-40,18.43,15.86,15.86,0,0,0-1.63,1c-.41.32-1.12.51-.91,1.24a3.15,3.15,0,0,0,1.29-.19c22.89-10,47.51-10.83,71.74-13.74,17.66-2.12,35.15-5,51.34-12.94,3-1.47,5.85-3.3,8.82-4.86.86-.45,1.73-2,2.8-.82.66.71-.33,1.76-.74,2.56A70,70,0,0,1,353.22,95c-10.71,8.58-23.08,12.68-36.66,13.81-13.42,1.12-26.88.1-40.28,1.23C272.15,110.65,267.88,110.37,263.84,111.68Z"/><path class="cls-2" d="M263.84,111.68c4-1.31,8.31-1,12.44-1.69-8.45,30.53-28.24,49.55-59,56.54-34.9,7.93-70.86-10.57-85.93-43.4-14.93-32.54-5.21-72.49,22.83-93.74C186.42,5,233.15,9.79,259.69,40.23a31.29,31.29,0,0,1,2.14,2.59c2.39,3.47,1,6.71-3.25,7.18-4,.46-7-1.58-9.63-4.38C240.1,36.39,229.48,30,217,27.27c-25.23-5.51-47.14,1.08-64.3,20.32-17.49,19.6-21,42.59-12.49,67.2,9,26.2,34.26,42.6,63.54,41.94C230.88,156.12,256.12,137.19,263.84,111.68Z"/><path class="cls-1" d="M.5,0A8.71,8.71,0,0,1,1.63.89C21,22.3,46.64,32.33,73.24,40.67c15.85,5,31.92,9.28,47.43,15.3,5,2,5,1.92,3.22,7a78,78,0,0,0-3.78,14.85c-.37,2.45-1.39,2.79-3.52,2-18.16-6.36-37-9.82-55.75-14-26.9-6-44.71-22.2-54.8-47.48A138.34,138.34,0,0,1,.39,2C.22,1.4-.46.68.5,0Z"/><path class="cls-1" d="M102.86,109.65c-12.15-.33-24.35-.2-36.13-3.83C48,100.05,35.27,87.46,26.6,70.3c-.32-.65-1-1.46-.2-2.1.24-.17,1.14.4,1.66.75C47,81.38,68.49,85.1,90.35,87.68c8.41,1,16.83,2,25.27,2.76,2.38.22,3.34,1.07,3.47,3.47a73.11,73.11,0,0,0,1.47,12.85c.59,2.48-.6,3-2.82,2.93C112.78,109.56,107.82,109.65,102.86,109.65Z"/><path class="cls-2" d="M189,209.72c2.92-.8,3.79.55,4.09,3.09.47,4,1.22,7.88,1.92,11.81a24.91,24.91,0,0,0,1,3c1.34-.44,1.26-1.7,1.56-2.73,1.18-4.14,2.44-8.26,3.47-12.44.48-2,1.12-3,3.42-3s3.39.68,3.91,3c.84,3.89,2,7.7,3.22,11.51.4,1.27.11,3.52,1.8,3.43,1-.06.86-2.45,1.12-3.79.71-3.76,1.48-7.53,1.85-11.33.44-4.38,3.64-2.71,5.75-2.68,3.5,0,1.38,2.66,1.13,3.85-1.68,8.12-3.71,16.17-5.4,24.28-.49,2.35-1.44,3.24-3.81,3.14-2.19-.09-4,0-4.53-2.9-.85-4.37-2.21-8.65-3.34-13-.24-.91-.36-2.27-1.4-2.22s-1.07,1.42-1.33,2.32c-1.2,4.3-2.59,8.57-3.5,12.93-.61,2.92-2.44,2.73-4.59,2.84-2.39.11-3.3-.81-3.79-3.15Q189,225.37,186,213.06C185.18,209.89,186.11,208.85,189,209.72Z"/><path class="cls-2" d="M279.33,225.05c0,3.83.11,7.67-.05,11.49-.07,1.51,1.14,4-1.57,4.22-2.5.22-5.41,1.16-7-2.29-1.84-3.88-4.06-7.59-6.18-11.35-.52-.91-.91-2.37-2.21-2.16-1.74.29-1.26,2-1.29,3.14-.07,3.36-.16,6.72,0,10.06.13,2.62-1.31,2.82-3.29,2.75-1.78-.07-3.54.21-3.51-2.56.09-8.78,0-17.56,0-26.35,0-1.11-.07-2.54,1.56-2.36,2.32.26,5.14-1.38,6.77,1.85,2.3,4.56,4.73,9,7.24,13.5.55,1,.69,3,2.19,2.54,1.31-.41.55-2.25.58-3.43.1-3.83.21-7.68,0-11.5-.17-2.79,1.18-3.08,3.45-3.1s3.51.37,3.37,3.09C279.17,216.73,279.33,220.9,279.33,225.05Z"/><path class="cls-2" d="M83,225.39c0-1.91,0-3.83,0-5.75.13-5.33,2.49-8.45,7.39-9.83,6-1.68,12.32-.08,14.83,3.86,1,1.56,2.54,4.14.91,5-1.83,1-4.88,1.66-6.92-.79a9.14,9.14,0,0,0-1.83-2.14,4.6,4.6,0,0,0-7,3.66c-.27,4-.09,8-.05,12a3.74,3.74,0,0,0,3.12,3.74c2.12.56,4.37.41,5.67-1.47,1.16-1.68,2.17-4.19-1.33-4.46-3-.22-2.21-2.11-2.24-3.72,0-2.37,1.83-1.62,3.12-1.77a1.29,1.29,0,0,1,.48,0c2.67.74,6.65-2,8,1.65,2.26,6.18-.56,12.66-5.66,14.71a16.66,16.66,0,0,1-13.07-.17A8.14,8.14,0,0,1,83,231.62C83.07,229.55,83,227.47,83,225.39Z"/><path class="cls-2" d="M175.42,225.36c0,1.44,0,2.87,0,4.31,0,7.77-3.82,11.42-11.92,11.54-8.46.12-12.57-3.53-12.66-11.33,0-3.67-.12-7.34,0-11,.22-4.76,2.61-7.72,7.2-9a19.51,19.51,0,0,1,9.95-.05c4.84,1.23,7.22,4.32,7.38,9.29C175.48,221.21,175.42,223.29,175.42,225.36ZM168,225h0c0-1.91,0-3.83,0-5.75-.08-3.05-2-4.16-4.73-4.18-2.94,0-5,1.12-5,4.42,0,3.83,0,7.67,0,11.5,0,3.28,2.08,4.46,5,4.45s4.8-1.48,4.77-4.69C168,228.83,168,226.91,168,225Z"/><path class="cls-2" d="M292.63,225c0-4.16.19-8.33-.06-12.47-.17-3,1.43-3,3.55-3s3.91-.26,3.73,2.78c-.17,2.71,0,5.43,0,8.15a1.73,1.73,0,0,0,.44,1.25c.73.49,1.12-.25,1.44-.72,2.05-3.05,4-6.14,6.1-9.18,1.24-1.84,6.71-3.21,8.54-2.16,1.47.84.17,1.62-.25,2.2-1.93,2.74-3.87,5.49-6,8.08-1.46,1.77-1.44,3.23-.23,5.13,2.66,4.18,5,8.55,7.67,12.73,1.66,2.62.89,3-1.89,3.18-3.29.16-5.52-.69-6.72-3.89a15.93,15.93,0,0,0-2.06-3.78c-1.06-1.44-1.31-4.57-3.29-3.94-1.79.56-3.24,3-3.69,5.29a9.45,9.45,0,0,0-.08,2.86c.35,2.89-1.11,3.43-3.66,3.44s-3.72-.74-3.59-3.53C292.78,233.29,292.63,229.12,292.63,225Z"/><path class="cls-2" d="M119.66,225c0-4.32.15-8.64,0-12.95-.14-3.31,2.1-2.39,3.84-2.53,1.91-.14,3.36-.07,3.29,2.64-.18,6.39.07,12.79-.11,19.18-.09,3,.55,4.46,3.9,4.09,2.52-.28,5.11.06,7.66-.09,2.18-.12,3.19.43,3.16,2.88S140,241,138,241c-5.12-.08-10.24-.12-15.35,0-2.28.06-3.11-.7-3-3C119.76,233.68,119.66,229.36,119.66,225Z"/><path class="cls-2" d="M234,225.16c0-4.3.2-8.61-.06-12.9-.19-3.22,1.83-2.66,3.68-2.7s3.8-.35,3.76,2.72q-.21,12.9,0,25.8c0,3-1.76,2.82-3.75,2.83s-3.81.16-3.67-2.85C234.16,233.77,234,229.46,234,225.16Z"/></g></g></svg>